<svg enable-background="new 0 0 64 64" height="64" viewBox="0 0 64 64" width="64" xmlns="http://www.w3.org/2000/svg" xmlns:xlink="http://www.w3.org/1999/xlink"><linearGradient id="a" gradientTransform="matrix(236.842 0 0 -273.481 125005.8438 281555.875)" gradientUnits="userSpaceOnUse" x1="-527.6675" x2="-527.6675" y1="1029.4197" y2="1029.3011"><stop offset="0" stop-color="#f7f6f3"/><stop offset="1" stop-color="#fef6d5"/></linearGradient><path d="m6.7 46.6 25.3 14.6 25.3-14.6v-29.2l-25.3-14.6-25.3 14.6zm25.3 17.4-27.7-16v-32l27.7-16 27.7 16v32z" fill="#a1070c"/><path d="m6.4 17.2 25.6-14.8 25.6 14.8v29.6l-25.6 14.8-25.6-14.8z" fill="url(#a)"/><path d="m43.8 21.2c0 1.2-.2 2.3-.7 3.5-.5 1.1-1.1 2.2-1.8 3.2-.8 1-1.7 1.8-2.7 2.6-1 .7-2.1 1.3-3.1 1.6l-.5-.8c.6-.3 1.2-.7 1.8-1.2.5-.5 1-1.1 1.4-1.7s.7-1.3.9-2 .3-1.4.3-2.2-.1-1.6-.4-2.4c-.2-.7-.6-1.4-1.1-2s-1.1-1-1.8-1.3-1.5-.5-2.4-.5c-1.1 0-2.1.2-3 .6s-1.7 1-2.5 1.7-1.4 1.6-1.9 2.5-1 1.9-1.4 3c-.4 1-.6 2.1-.8 3.1-.2 1.1-.3 2.1-.3 3s.1 1.9.3 2.9.5 2 .9 3 .9 1.9 1.4 2.8c.6.9 1.2 1.6 2 2.3.7.7 1.6 1.2 2.5 1.6s1.9.6 3 .6c.7 0 1.4-.1 2.1-.3s1.4-.5 2-.8 1.3-.7 1.8-1.2c.6-.5 1.1-1 1.6-1.5l.8.7c-.7.9-1.5 1.7-2.4 2.6-.9.8-1.9 1.5-3 2.2-1.1.6-2.2 1.1-3.4 1.5s-2.3.6-3.5.6c-1.1 0-2.2-.2-3.2-.6s-1.9-.9-2.7-1.6-1.6-1.4-2.2-2.3c-.7-.9-1.2-1.8-1.7-2.9-.5-1-.8-2.1-1-3.1-.2-1.1-.4-2.1-.4-3.1 0-1.5.2-3 .7-4.6s1.2-3.1 2.1-4.6 1.9-2.9 3.1-4.2 2.5-2.5 3.8-3.4c1.4-1 2.8-1.8 4.3-2.3 1.5-.6 3-.9 4.5-.9.9 0 1.8.1 2.6.4s1.5.7 2.1 1.2 1 1.1 1.4 1.9c.3.5.5 1.4.5 2.4z" fill="#a1070c"/></svg>