<?xml version="1.0" encoding="UTF-8" standalone="no"?>
<svg
   xmlns:dc="http://purl.org/dc/elements/1.1/"
   xmlns:cc="http://creativecommons.org/ns#"
   xmlns:rdf="http://www.w3.org/1999/02/22-rdf-syntax-ns#"
   xmlns:svg="http://www.w3.org/2000/svg"
   xmlns="http://www.w3.org/2000/svg"
   xmlns:sodipodi="http://sodipodi.sourceforge.net/DTD/sodipodi-0.dtd"
   xmlns:inkscape="http://www.inkscape.org/namespaces/inkscape"
   width="52"
   height="41.067001"
   viewBox="0 0 52 41.067"
   version="1.1"
   id="svg38"
   sodipodi:docname="Hardhat-logo.652a7049.svg"
   inkscape:version="0.92.5 (2060ec1f9f, 2020-04-08)">
  <metadata
     id="metadata42">
    <rdf:RDF>
      <cc:Work
         rdf:about="">
        <dc:format>image/svg+xml</dc:format>
        <dc:type
           rdf:resource="http://purl.org/dc/dcmitype/StillImage" />
        <dc:title></dc:title>
      </cc:Work>
    </rdf:RDF>
  </metadata>
  <sodipodi:namedview
     pagecolor="#ffffff"
     bordercolor="#666666"
     borderopacity="1"
     objecttolerance="10"
     gridtolerance="10"
     guidetolerance="10"
     inkscape:pageopacity="0"
     inkscape:pageshadow="2"
     inkscape:window-width="1848"
     inkscape:window-height="1043"
     id="namedview40"
     showgrid="false"
     inkscape:zoom="3.1607143"
     inkscape:cx="83.683616"
     inkscape:cy="20.533501"
     inkscape:window-x="72"
     inkscape:window-y="0"
     inkscape:window-maximized="1"
     inkscape:current-layer="svg38" />
  <defs
     id="defs4">
    <style
       id="style2">
      .a {
        fill: none;
      }
      .b {
        fill: #15191f;
      }
      .c {
        fill: #f0d50c;
      }
      .d {
        fill: #fff04d;
      }
      .e {
        fill: #ffea00;
      }
      .f {
        fill: #6e6f70;
      }
      .g {
        fill: #0a0a0a;
      }
    </style>
  </defs>
  <rect
     class="a"
     width="168"
     height="41.067001"
     id="rect6"
     x="0"
     y="-4.0283203e-06"
     style="fill:none" />
  <rect
     class="a"
     width="52.266998"
     height="41.067001"
     id="rect10"
     x="0"
     y="-4.0283203e-06"
     style="fill:none" />
  <g
     transform="translate(3.267,4.6669961)"
     id="g36">
    <path
       class="c"
       d="m 269.365,443.681 c 0,0 -6.966,-1.032 -10.647,-1.328 -3.535,-0.284 -7.724,-0.448 -12.218,-0.448 -4.494,0 -8.683,0.164 -12.217,0.448 -3.682,0.3 -10.647,1.732 -10.647,1.732 v 1.8 c 0,1.6 10.237,2.9 22.864,2.9 12.627,0 22.864,-1.3 22.864,-2.9 z"
       transform="translate(-223.634,-417.164)"
       id="path12"
       inkscape:connector-curvature="0"
       style="fill:#f0d50c" />
    <path
       class="c"
       d="M 241.625,394.889 A 20.96,20.96 0 0 0 227.7,414.632 v 2.968 a 50.728,50.728 0 0 1 9.076,-1.316 q -0.031,-0.854 -0.032,-1.721 c 0.003,-7.788 1.883,-14.796 4.881,-19.674 z"
       transform="translate(-225.789,-392.247)"
       id="path14"
       inkscape:connector-curvature="0"
       style="fill:#f0d50c" />
    <path
       class="d"
       d="m 311.469,421.867 a 20.867,20.867 0 0 0 -4.783,-13.325 43.45,43.45 0 0 1 1.984,13.258 q 0,1.227 -0.063,2.426 a 25.707,25.707 0 0 1 2.829,0.6 z"
       transform="translate(-267.649,-399.482)"
       id="path16"
       inkscape:connector-curvature="0"
       style="fill:#fff04d" />
    <path
       class="e"
       d="m 311.469,421.867 a 20.867,20.867 0 0 0 -4.783,-13.325 43.45,43.45 0 0 1 1.984,13.258 q 0,1.227 -0.063,2.426 a 25.707,25.707 0 0 1 2.829,0.6 z"
       transform="translate(-267.649,-399.482)"
       id="path18"
       inkscape:connector-curvature="0"
       style="fill:#ffea00" />
    <path
       class="d"
       d="m 275.024,399.941 a 20.974,20.974 0 0 0 -23.2,-6.417 c -3,4.878 -4.879,11.886 -4.879,19.675 q 0,0.867 0.032,1.721 c 3.12,-0.241 6.732,-0.39 10.6,-0.417 0,0 0.879,0 1.278,0 a 122.242,122.242 0 0 1 18.092,1.127 q 0.061,-1.2 0.063,-2.426 a 43.449,43.449 0 0 0 -1.986,-13.263 z"
       transform="translate(-235.987,-390.882)"
       id="path20"
       inkscape:connector-curvature="0"
       style="fill:#fff04d" />
    <g
       transform="translate(14.537)"
       id="g24">
      <path
         class="d"
         d="m 271.318,399.712 -1.328,-8.3 a 1.6,1.6 0 0 0 -1.124,-1.289 21.047,21.047 0 0 0 -11.853,0 1.6,1.6 0 0 0 -1.123,1.289 l -1.329,8.3"
         transform="translate(-254.56,-389.267)"
         id="path22"
         inkscape:connector-curvature="0"
         style="fill:#fff04d" />
    </g>
    <path
       class="d"
       d="m 246.5,439.148 q -0.6,0 -1.191,0 h -0.044 -0.044 c -12.033,0.084 -21.586,1.348 -21.586,2.895 v 2.242 a 0.558,0.558 0 0 0 0.079,0.378 5.345,5.345 0 0 1 2.06,-0.946 40.309,40.309 0 0 1 5.781,-0.968 3.871,3.871 0 0 1 3.033,0.99 8.159,8.159 0 0 0 5.51,2.141 h 12.8 a 8.16,8.16 0 0 0 5.51,-2.141 v 0 a 3.869,3.869 0 0 1 3.034,-0.991 40.29,40.29 0 0 1 5.78,0.968 4.833,4.833 0 0 1 1.954,0.855 c 0.033,0.033 0.071,0.062 0.1,0.092 a 0.562,0.562 0 0 0 0.08,-0.38 v -2.242 c 0.007,-1.595 -10.23,-2.893 -22.856,-2.893 z"
       transform="translate(-223.632,-415.703)"
       id="path26"
       inkscape:connector-curvature="0"
       style="fill:#fff04d" />
    <path
       class="f"
       d="m 277.1,424.983 -4.822,2.968 v 3.855 z"
       transform="translate(-249.416,-408.196)"
       id="path28"
       inkscape:connector-curvature="0"
       style="fill:#6e6f70" />
    <path
       class="g"
       d="m 266.845,431.806 v -3.855 l -4.822,-2.968 z"
       transform="translate(-243.978,-408.196)"
       id="path30"
       inkscape:connector-curvature="0"
       style="fill:#0a0a0a" />
    <path
       class="g"
       d="m 262.023,412.443 v 0 l 4.822,2.788 v -10.587 z"
       transform="translate(-243.978,-397.417)"
       id="path32"
       inkscape:connector-curvature="0"
       style="fill:#0a0a0a" />
    <path
       class="f"
       d="m 277.1,412.443 -4.822,-7.8 v 0 5.011 0 5.576 l 4.822,-2.788 v 0 z"
       transform="translate(-249.416,-397.417)"
       id="path34"
       inkscape:connector-curvature="0"
       style="fill:#6e6f70" />
  </g>
</svg>
